<svg xmlns="http://www.w3.org/2000/svg" xmlns:svg="http://www.w3.org/2000/svg" id="svg3713" width="96" height="40" version="1.1" viewBox="0 0 96 40" xml:space="preserve"><metadata id="metadata3719"/><defs id="defs3717"><linearGradient id="linearGradient3743" x1="0" x2="1" y1="0" y2="0" gradientTransform="matrix(432,0,0,-432,0,72)" gradientUnits="userSpaceOnUse" spreadMethod="pad"><stop style="stop-opacity:1;stop-color:#ff6200" id="stop3737" offset="0"/><stop style="stop-opacity:1;stop-color:#ff6200" id="stop3739" offset=".107"/><stop style="stop-opacity:1;stop-color:#ffd200" id="stop3741" offset="1"/></linearGradient><clipPath id="clipPath3753" clipPathUnits="userSpaceOnUse"><path id="path3751" d="M 0,432 H 432 V 0 H 0 Z"/></clipPath><meshgradient id="meshgradient3899" x="158.4" y="50.057" gradientUnits="userSpaceOnUse"><meshrow id="meshrow3901"><meshpatch id="meshpatch3903"><stop path="c 38.4,0 76.8001,0 115.2,0" style="stop-color:#fff;stop-opacity:1" id="stop3905"/><stop path="c 0,109.365 0,218.729 0,328.094" style="stop-color:#000;stop-opacity:1" id="stop3907"/><stop path="c -38.4,0 -76.8001,0 -115.2,0" style="stop-color:#fff;stop-opacity:1" id="stop3909"/><stop path="c 0,-109.365 0,-218.729 0,-328.094" style="stop-color:#000;stop-opacity:1" id="stop3911"/></meshpatch></meshrow></meshgradient><clipPath id="clipPath5505" clipPathUnits="userSpaceOnUse"><rect id="rect5507" width="432" height="144" x="0" y="-432" style="stroke-width:.75" transform="scale(1,-1)"/></clipPath><clipPath id="clipPath5509" clipPathUnits="userSpaceOnUse"><rect id="rect5511" width="432" height="144" x="0" y="-432" style="stroke-width:.75" transform="scale(1,-1)"/></clipPath><clipPath id="clipPath5513" clipPathUnits="userSpaceOnUse"><rect id="rect5515" width="432" height="144" x="0" y="-432" style="stroke-width:.75" transform="scale(1,-1)"/></clipPath></defs><g id="g3721" transform="matrix(1.3333333,0,0,-1.3333333,0,40)"><g id="g3725" clip-path="url(#clipPath5509)"><g id="g3727"><g id="g3733"><g id="g3735"><path d="M 0,0 H 432 V 144 H 0 Z" style="fill:url(#linearGradient3743);stroke:none" id="path3745"/></g></g></g></g><g id="g3747" style="fill:url(#meshgradient3899);fill-opacity:1" clip-path="url(#clipPath5505)" transform="matrix(0.50901913,0,0,0.50901913,-73.596013,-148.51044)"><g id="g3749" clip-path="url(#clipPath3753)" style="fill:#4d4d4d;fill-opacity:1" transform="translate(0,-30.828718)"><g id="g3755" transform="translate(218.9481,214.6993)" style="fill:#4d4d4d;fill-opacity:1"><path d="M 0,0 H 17.687 L 8.851,17.093 Z M 20.265,-3.576 H -2.58 c -0.707,0 -1.347,0.36 -1.714,0.964 -0.368,0.603 -0.393,1.338 -0.068,1.966 L 7.07,21.432 c 0.345,0.667 1.028,1.084 1.781,1.084 h 10e-4 c 0.752,0 1.435,-0.415 1.781,-1.084 l 11.415,-22.08 c 0.324,-0.627 0.298,-1.363 -0.069,-1.965 -0.367,-0.604 -1.008,-0.963 -1.714,-0.963" style="fill:#4d4d4d;fill-opacity:1;fill-rule:nonzero;stroke:none" id="path3757"/></g><g id="g3759" transform="translate(273.6,235.2852)" style="fill:#4d4d4d;fill-opacity:1"><path d="m 0,0 v -22.374 c 0,-1.176 -0.908,-1.788 -1.809,-1.788 -0.901,0 -1.81,0.612 -1.81,1.788 v 16.341 l -7.498,-11.723 c -0.352,-0.647 -0.985,-1.069 -1.71,-1.034 -0.697,0.014 -1.317,0.408 -1.655,1.062 l -7.476,11.653 v -16.299 c 0,-2.344 -3.619,-2.344 -3.619,0 V 0 c 0,0.937 0.514,1.669 1.309,1.88 0.81,0.204 1.62,-0.183 2.07,-0.992 l 9.427,-14.687 9.364,14.707 c 0.521,0.803 1.365,1.176 2.154,0.944 C -0.493,1.634 0,0.901 0,0" style="fill:#4d4d4d;fill-opacity:1;fill-rule:nonzero;stroke:none" id="path3761"/></g><g id="g3763" transform="translate(208.1745,212.7569)" style="fill:#4d4d4d;fill-opacity:1"><path d="m 0,0 c 0,-0.901 -0.732,-1.634 -1.633,-1.634 h -17.376 c -0.901,0 -1.633,0.733 -1.633,1.634 0,0.894 0.732,1.626 1.633,1.626 H -1.633 C -0.732,1.626 0,0.894 0,0" style="fill:#4d4d4d;fill-opacity:1;fill-rule:nonzero;stroke:none" id="path3765"/></g><g id="g3767" transform="translate(181.3373,219.0225)" style="fill:#4d4d4d;fill-opacity:1"><path d="m 0,0 c 0,-6.871 -6.724,-7.899 -10.73,-7.899 h -10.56 c -0.908,0 -1.647,0.739 -1.647,1.647 0,0.915 0.739,1.654 1.647,1.654 h 10.56 c 4.661,0 7.034,1.542 7.034,4.598 0,3.752 -4.084,4.153 -5.837,4.153 H -21.29 c -0.908,0 -1.647,0.746 -1.647,1.655 0,0.908 0.739,1.647 1.647,1.647 h 9.758 c 2.774,0 6.076,0.606 6.076,3.479 0,3.85 -5.562,3.963 -6.196,3.963 h -9.638 c -0.908,0 -1.647,0.74 -1.647,1.648 0,0.908 0.739,1.647 1.647,1.647 h 9.638 c 2.302,0 9.814,-0.521 9.814,-7.258 0,-2.071 -0.908,-3.739 -2.527,-4.697 C -1.542,5.083 0,2.894 0,0" style="fill:#4d4d4d;fill-opacity:1;fill-rule:nonzero;stroke:none" id="path3769"/></g><g id="g3771" transform="translate(207.7594,224.8721)" style="fill:#4d4d4d;fill-opacity:1"><path d="m 0,0 c 0,-0.895 -0.725,-1.627 -1.626,-1.627 h -16.559 c -0.894,0 -1.627,0.732 -1.627,1.627 0,0.9 0.733,1.633 1.627,1.633 H -1.626 C -0.725,1.633 0,0.9 0,0" style="fill:#4d4d4d;fill-opacity:1;fill-rule:nonzero;stroke:none" id="path3773"/></g><g id="g3775" transform="translate(187.5326,235.588)" style="fill:#4d4d4d;fill-opacity:1"><path d="m 0,0 c 0,0.901 0.732,1.627 1.633,1.627 h 17.376 c 0.901,0 1.633,-0.726 1.633,-1.627 0,-0.901 -0.732,-1.633 -1.633,-1.633 H 1.633 C 0.732,-1.633 0,-0.901 0,0" style="fill:#4d4d4d;fill-opacity:1;fill-rule:nonzero;stroke:none" id="path3777"/></g><g id="g3779" transform="translate(160.2349,195.5411)" style="fill:#4d4d4d;fill-opacity:1"><path d="M 0,0 C -0.409,0.301 -0.745,0.675 -1.008,1.124 -1.307,1.634 -1.082,2.293 -0.533,2.51 -0.095,2.682 0.433,2.542 0.663,2.132 0.785,1.914 0.932,1.724 1.104,1.562 1.447,1.237 1.877,1.074 2.393,1.074 c 0.43,0 0.798,0.108 1.104,0.323 0.305,0.215 0.458,0.513 0.458,0.896 0,0.381 -0.146,0.694 -0.437,0.938 C 3.227,3.475 2.708,3.735 1.963,4.012 L 1.333,4.241 C 0.674,4.471 0.11,4.821 -0.358,5.295 -0.826,5.768 -1.06,6.362 -1.06,7.079 c 0,0.534 0.138,1.023 0.415,1.462 C -0.368,8.98 0.024,9.326 0.53,9.58 1.037,9.832 1.61,9.959 2.25,9.959 3.177,9.959 3.907,9.742 4.443,9.308 4.669,9.123 4.866,8.926 5.033,8.715 5.378,8.278 5.178,7.626 4.665,7.41 L 4.504,7.343 C 4.152,7.195 3.772,7.336 3.525,7.628 3.455,7.711 3.376,7.788 3.289,7.859 3.026,8.074 2.689,8.183 2.279,8.183 1.858,8.183 1.512,8.084 1.24,7.889 0.967,7.692 0.831,7.437 0.831,7.121 0.831,6.815 0.96,6.556 1.218,6.341 1.476,6.126 1.901,5.918 2.494,5.717 L 3.138,5.502 C 4.027,5.196 4.708,4.793 5.181,4.292 5.653,3.79 5.89,3.133 5.89,2.321 5.89,1.652 5.718,1.087 5.374,0.623 5.03,0.159 4.588,-0.187 4.048,-0.416 3.509,-0.646 2.952,-0.76 2.379,-0.76 1.481,-0.76 0.688,-0.507 0,0" style="fill:#4d4d4d;fill-opacity:1;fill-rule:nonzero;stroke:none" id="path3781"/></g><g id="g3783" transform="translate(181.4076,195.2979)" style="fill:#4d4d4d;fill-opacity:1"><path d="m 0,0 c -0.597,0.343 -1.06,0.84 -1.39,1.49 -0.33,0.65 -0.495,1.418 -0.495,2.307 v 5.216 c 0,0.53 0.43,0.961 0.961,0.961 v 0 c 0.53,0 0.96,-0.431 0.96,-0.961 V 3.683 C 0.036,2.975 0.215,2.404 0.573,1.97 0.932,1.535 1.44,1.317 2.099,1.317 c 0.66,0 1.168,0.218 1.526,0.653 0.359,0.434 0.538,1.005 0.538,1.713 v 5.33 c 0,0.53 0.43,0.961 0.96,0.961 0.53,0 0.96,-0.431 0.96,-0.961 V 3.797 C 6.083,2.946 5.921,2.196 5.596,1.547 5.271,0.897 4.808,0.391 4.206,0.028 3.604,-0.335 2.902,-0.517 2.099,-0.517 1.297,-0.517 0.597,-0.345 0,0" style="fill:#4d4d4d;fill-opacity:1;fill-rule:nonzero;stroke:none" id="path3785"/></g><g id="g3787" transform="translate(202.8795,205.2715)" style="fill:#4d4d4d;fill-opacity:1"><path d="m 0,0 v 0 c 0.613,0 1.163,-0.38 1.379,-0.954 l 2.363,-6.255 h 0.114 l 2.363,6.255 C 6.436,-0.38 6.985,0 7.598,0 h 0.015 c 0.814,0 1.474,-0.66 1.474,-1.475 v -7.833 c 0,-0.526 -0.427,-0.953 -0.953,-0.953 H 8.12 c -0.527,0 -0.953,0.427 -0.953,0.953 v 4.105 l 0.114,1.706 H 7.167 L 4.794,-9.65 C 4.652,-10.019 4.299,-10.261 3.905,-10.261 H 3.707 c -0.394,0 -0.747,0.241 -0.889,0.609 L 0.432,-3.497 H 0.317 l 0.115,-1.706 v -4.105 c 0,-0.526 -0.427,-0.953 -0.953,-0.953 -0.527,0 -0.953,0.427 -0.953,0.953 v 7.833 C -1.474,-0.66 -0.814,0 0,0" style="fill:#4d4d4d;fill-opacity:1;fill-rule:nonzero;stroke:none" id="path3789"/></g><g id="g3791" transform="translate(227.5272,205.2715)" style="fill:#4d4d4d;fill-opacity:1"><path d="m 0,0 v 0 c 0.613,0 1.163,-0.38 1.379,-0.954 l 2.363,-6.255 h 0.114 l 2.363,6.255 C 6.436,-0.38 6.985,0 7.598,0 h 0.015 c 0.814,0 1.474,-0.66 1.474,-1.475 v -7.833 c 0,-0.526 -0.427,-0.953 -0.953,-0.953 H 8.12 c -0.526,0 -0.953,0.427 -0.953,0.953 v 4.105 l 0.114,1.706 H 7.167 L 4.794,-9.65 C 4.652,-10.019 4.299,-10.261 3.905,-10.261 H 3.707 c -0.394,0 -0.747,0.241 -0.889,0.609 L 0.432,-3.497 H 0.317 l 0.115,-1.706 v -4.105 c 0,-0.526 -0.427,-0.953 -0.953,-0.953 -0.527,0 -0.953,0.427 -0.953,0.953 v 7.833 C -1.474,-0.66 -0.814,0 0,0" style="fill:#4d4d4d;fill-opacity:1;fill-rule:nonzero;stroke:none" id="path3793"/></g><g id="g3795" transform="translate(251.6681,205.2715)" style="fill:#4d4d4d;fill-opacity:1"><path d="m 0,0 v 0 c 0.534,0 0.967,-0.434 0.967,-0.968 v -8.326 c 0,-0.534 -0.433,-0.967 -0.967,-0.967 -0.534,0 -0.968,0.433 -0.968,0.967 v 8.326 C -0.968,-0.434 -0.534,0 0,0" style="fill:#4d4d4d;fill-opacity:1;fill-rule:nonzero;stroke:none" id="path3797"/></g><g id="g3799" transform="translate(268.7994,203.4366)" style="fill:#4d4d4d;fill-opacity:1"><path d="m 0,0 h -1.949 c -0.506,0 -0.917,0.411 -0.917,0.917 0,0.507 0.411,0.918 0.917,0.918 H 3.883 C 4.39,1.835 4.801,1.424 4.801,0.917 4.801,0.411 4.39,0 3.883,0 H 1.935 v -7.509 c 0,-0.507 -0.411,-0.917 -0.918,-0.917 h -0.1 C 0.411,-8.426 0,-8.016 0,-7.509 Z" style="fill:#4d4d4d;fill-opacity:1;fill-rule:nonzero;stroke:none" id="path3801"/></g><g id="g3803" transform="translate(218.9481,355.6309)" style="fill:#4d4d4d;fill-opacity:1"><path d="M 0,0 H 17.687 L 8.851,17.093 Z M 20.265,-3.575 H -2.58 c -0.707,0 -1.347,0.36 -1.714,0.964 -0.368,0.602 -0.393,1.338 -0.068,1.965 L 7.07,21.432 c 0.345,0.668 1.028,1.084 1.781,1.084 h 10e-4 c 0.752,0 1.435,-0.415 1.781,-1.084 L 22.048,-0.647 c 0.324,-0.628 0.298,-1.363 -0.069,-1.965 -0.367,-0.604 -1.008,-0.963 -1.714,-0.963" style="fill:#4d4d4d;fill-opacity:1;fill-rule:nonzero;stroke:none" id="path3805"/></g><g id="g3807" transform="translate(273.6,376.2178)" style="fill:#4d4d4d;fill-opacity:1"><path d="m 0,0 v -22.374 c 0,-1.176 -0.908,-1.788 -1.809,-1.788 -0.901,0 -1.81,0.612 -1.81,1.788 v 16.34 l -7.498,-11.722 c -0.352,-0.647 -0.985,-1.07 -1.71,-1.035 -0.697,0.015 -1.317,0.408 -1.655,1.063 l -7.476,11.652 v -16.298 c 0,-2.345 -3.619,-2.345 -3.619,0 V 0 c 0,0.937 0.514,1.668 1.309,1.88 0.81,0.204 1.62,-0.184 2.07,-0.993 l 9.427,-14.686 9.364,14.707 c 0.521,0.803 1.365,1.176 2.154,0.944 C -0.493,1.633 0,0.901 0,0" style="fill:#4d4d4d;fill-opacity:1;fill-rule:nonzero;stroke:none" id="path3809"/></g><g id="g3811" transform="translate(208.1745,353.6885)" style="fill:#4d4d4d;fill-opacity:1"><path d="m 0,0 c 0,-0.901 -0.732,-1.633 -1.633,-1.633 h -17.376 c -0.901,0 -1.633,0.732 -1.633,1.633 0,0.895 0.732,1.627 1.633,1.627 H -1.633 C -0.732,1.627 0,0.895 0,0" style="fill:#4d4d4d;fill-opacity:1;fill-rule:nonzero;stroke:none" id="path3813"/></g><g id="g3815" transform="translate(181.3373,359.9542)" style="fill:#4d4d4d;fill-opacity:1"><path d="m 0,0 c 0,-6.871 -6.724,-7.898 -10.73,-7.898 h -10.56 c -0.908,0 -1.647,0.739 -1.647,1.647 0,0.915 0.739,1.654 1.647,1.654 h 10.56 c 4.661,0 7.034,1.542 7.034,4.597 0,3.753 -4.084,4.154 -5.837,4.154 H -21.29 c -0.908,0 -1.647,0.746 -1.647,1.655 0,0.908 0.739,1.647 1.647,1.647 h 9.758 c 2.774,0 6.076,0.606 6.076,3.478 0,3.851 -5.562,3.963 -6.196,3.963 h -9.638 c -0.908,0 -1.647,0.74 -1.647,1.648 0,0.908 0.739,1.647 1.647,1.647 h 9.638 c 2.302,0 9.814,-0.52 9.814,-7.258 0,-2.07 -0.908,-3.739 -2.527,-4.696 C -1.542,5.083 0,2.894 0,0" style="fill:#4d4d4d;fill-opacity:1;fill-rule:nonzero;stroke:none" id="path3817"/></g><g id="g3819" transform="translate(207.7594,365.8038)" style="fill:#4d4d4d;fill-opacity:1"><path d="m 0,0 c 0,-0.894 -0.725,-1.626 -1.626,-1.626 h -16.559 c -0.894,0 -1.627,0.732 -1.627,1.626 0,0.901 0.733,1.634 1.627,1.634 H -1.626 C -0.725,1.634 0,0.901 0,0" style="fill:#4d4d4d;fill-opacity:1;fill-rule:nonzero;stroke:none" id="path3821"/></g><g id="g3823" transform="translate(187.5326,376.5206)" style="fill:#4d4d4d;fill-opacity:1"><path d="m 0,0 c 0,0.901 0.732,1.626 1.633,1.626 h 17.376 c 0.901,0 1.633,-0.725 1.633,-1.626 0,-0.901 -0.732,-1.634 -1.633,-1.634 H 1.633 C 0.732,-1.634 0,-0.901 0,0" style="fill:#4d4d4d;fill-opacity:1;fill-rule:nonzero;stroke:none" id="path3825"/></g><g id="g3827" transform="translate(160.2349,336.4727)" style="fill:#4d4d4d;fill-opacity:1"><path d="M 0,0 C -0.409,0.301 -0.745,0.676 -1.008,1.125 -1.307,1.634 -1.082,2.294 -0.533,2.51 -0.095,2.683 0.433,2.542 0.663,2.132 0.785,1.914 0.932,1.725 1.104,1.562 1.447,1.237 1.877,1.075 2.393,1.075 c 0.43,0 0.798,0.108 1.104,0.322 0.305,0.215 0.458,0.513 0.458,0.896 0,0.382 -0.146,0.695 -0.437,0.938 C 3.227,3.476 2.708,3.735 1.963,4.013 L 1.333,4.242 C 0.674,4.472 0.11,4.822 -0.358,5.295 -0.826,5.769 -1.06,6.363 -1.06,7.079 c 0,0.535 0.138,1.023 0.415,1.462 C -0.368,8.98 0.024,9.327 0.53,9.58 1.037,9.833 1.61,9.959 2.25,9.959 3.177,9.959 3.907,9.742 4.443,9.308 4.669,9.124 4.866,8.926 5.033,8.715 5.378,8.278 5.178,7.627 4.665,7.411 L 4.504,7.344 C 4.152,7.195 3.772,7.337 3.525,7.629 3.455,7.712 3.376,7.789 3.289,7.86 3.026,8.075 2.689,8.183 2.279,8.183 1.858,8.183 1.512,8.085 1.24,7.889 0.967,7.693 0.831,7.437 0.831,7.122 0.831,6.816 0.96,6.556 1.218,6.341 1.476,6.126 1.901,5.919 2.494,5.718 L 3.138,5.503 C 4.027,5.197 4.708,4.793 5.181,4.292 5.653,3.791 5.89,3.134 5.89,2.322 5.89,1.653 5.718,1.087 5.374,0.624 5.03,0.16 4.588,-0.186 4.048,-0.415 3.509,-0.645 2.952,-0.76 2.379,-0.76 1.481,-0.76 0.688,-0.506 0,0" style="fill:#4d4d4d;fill-opacity:1;fill-rule:nonzero;stroke:none" id="path3829"/></g><g id="g3831" transform="translate(181.4076,336.2296)" style="fill:#4d4d4d;fill-opacity:1"><path d="m 0,0 c -0.597,0.344 -1.06,0.841 -1.39,1.49 -0.33,0.65 -0.495,1.419 -0.495,2.308 v 5.216 c 0,0.53 0.43,0.96 0.961,0.96 v 0 c 0.53,0 0.96,-0.43 0.96,-0.96 V 3.683 C 0.036,2.976 0.215,2.405 0.573,1.971 0.932,1.535 1.44,1.318 2.099,1.318 c 0.66,0 1.168,0.217 1.526,0.653 0.359,0.434 0.538,1.005 0.538,1.712 v 5.331 c 0,0.53 0.43,0.96 0.96,0.96 0.53,0 0.96,-0.43 0.96,-0.96 V 3.798 C 6.083,2.946 5.921,2.197 5.596,1.547 5.271,0.897 4.808,0.392 4.206,0.028 3.604,-0.334 2.902,-0.517 2.099,-0.517 1.297,-0.517 0.597,-0.344 0,0" style="fill:#4d4d4d;fill-opacity:1;fill-rule:nonzero;stroke:none" id="path3833"/></g><g id="g3835" transform="translate(202.8795,346.2032)" style="fill:#4d4d4d;fill-opacity:1"><path d="m 0,0 v 0 c 0.613,0 1.163,-0.38 1.379,-0.953 l 2.363,-6.255 h 0.114 l 2.363,6.255 C 6.436,-0.38 6.985,0 7.598,0 h 0.015 c 0.814,0 1.474,-0.66 1.474,-1.475 v -7.833 c 0,-0.526 -0.427,-0.953 -0.953,-0.953 H 8.12 c -0.527,0 -0.953,0.427 -0.953,0.953 v 4.106 l 0.114,1.706 H 7.167 L 4.794,-9.65 C 4.652,-10.018 4.299,-10.261 3.905,-10.261 H 3.707 c -0.394,0 -0.747,0.242 -0.889,0.609 L 0.432,-3.496 H 0.317 l 0.115,-1.706 v -4.106 c 0,-0.526 -0.427,-0.953 -0.953,-0.953 -0.527,0 -0.953,0.427 -0.953,0.953 v 7.833 C -1.474,-0.66 -0.814,0 0,0" style="fill:#4d4d4d;fill-opacity:1;fill-rule:nonzero;stroke:none" id="path3837"/></g><g id="g3839" transform="translate(227.5272,346.2032)" style="fill:#4d4d4d;fill-opacity:1"><path d="m 0,0 v 0 c 0.613,0 1.163,-0.38 1.379,-0.953 l 2.363,-6.255 h 0.114 l 2.363,6.255 C 6.436,-0.38 6.985,0 7.598,0 h 0.015 c 0.814,0 1.474,-0.66 1.474,-1.475 v -7.833 c 0,-0.526 -0.427,-0.953 -0.953,-0.953 H 8.12 c -0.526,0 -0.953,0.427 -0.953,0.953 v 4.106 l 0.114,1.706 H 7.167 L 4.794,-9.65 C 4.652,-10.018 4.299,-10.261 3.905,-10.261 H 3.707 c -0.394,0 -0.747,0.242 -0.889,0.609 L 0.432,-3.496 H 0.317 l 0.115,-1.706 v -4.106 c 0,-0.526 -0.427,-0.953 -0.953,-0.953 -0.527,0 -0.953,0.427 -0.953,0.953 v 7.833 C -1.474,-0.66 -0.814,0 0,0" style="fill:#4d4d4d;fill-opacity:1;fill-rule:nonzero;stroke:none" id="path3841"/></g><g id="g3843" transform="translate(251.6681,346.2032)" style="fill:#4d4d4d;fill-opacity:1"><path d="m 0,0 v 0 c 0.534,0 0.967,-0.433 0.967,-0.967 v -8.326 c 0,-0.534 -0.433,-0.968 -0.967,-0.968 -0.534,0 -0.968,0.434 -0.968,0.968 v 8.326 C -0.968,-0.433 -0.534,0 0,0" style="fill:#4d4d4d;fill-opacity:1;fill-rule:nonzero;stroke:none" id="path3845"/></g><g id="g3847" transform="translate(268.7994,344.3682)" style="fill:#4d4d4d;fill-opacity:1"><path d="m 0,0 h -1.949 c -0.506,0 -0.917,0.411 -0.917,0.918 0,0.507 0.411,0.917 0.917,0.917 H 3.883 C 4.39,1.835 4.801,1.425 4.801,0.918 4.801,0.411 4.39,0 3.883,0 H 1.935 v -7.508 c 0,-0.507 -0.411,-0.918 -0.918,-0.918 h -0.1 C 0.411,-8.426 0,-8.015 0,-7.508 Z" style="fill:#4d4d4d;fill-opacity:1;fill-rule:nonzero;stroke:none" id="path3849"/></g><g id="g3851" transform="translate(218.9481,69.9756)" style="fill:#4d4d4d;fill-opacity:1"><path d="M 0,0 H 17.687 L 8.851,17.093 Z M 20.265,-3.575 H -2.58 c -0.707,0 -1.347,0.36 -1.714,0.963 -0.368,0.603 -0.393,1.339 -0.068,1.966 L 7.07,21.432 c 0.345,0.668 1.028,1.084 1.781,1.084 h 10e-4 c 0.752,0 1.435,-0.415 1.781,-1.084 L 22.048,-0.647 c 0.324,-0.628 0.298,-1.363 -0.069,-1.965 -0.367,-0.604 -1.008,-0.963 -1.714,-0.963" style="fill:#4d4d4d;fill-opacity:1;fill-rule:nonzero;stroke:none" id="path3853"/></g><g id="g3855" transform="translate(273.6,90.5626)" style="fill:#4d4d4d;fill-opacity:1"><path d="m 0,0 v -22.374 c 0,-1.176 -0.908,-1.788 -1.809,-1.788 -0.901,0 -1.81,0.612 -1.81,1.788 v 16.34 l -7.498,-11.722 c -0.352,-0.647 -0.985,-1.07 -1.71,-1.035 -0.697,0.015 -1.317,0.408 -1.655,1.063 l -7.476,11.652 v -16.298 c 0,-2.345 -3.619,-2.345 -3.619,0 V 0 c 0,0.936 0.514,1.668 1.309,1.88 0.81,0.204 1.62,-0.184 2.07,-0.993 l 9.427,-14.686 9.364,14.707 c 0.521,0.803 1.365,1.176 2.154,0.944 C -0.493,1.633 0,0.9 0,0" style="fill:#4d4d4d;fill-opacity:1;fill-rule:nonzero;stroke:none" id="path3857"/></g><g id="g3859" transform="translate(208.1745,68.0333)" style="fill:#4d4d4d;fill-opacity:1"><path d="m 0,0 c 0,-0.901 -0.732,-1.633 -1.633,-1.633 h -17.376 c -0.901,0 -1.633,0.732 -1.633,1.633 0,0.895 0.732,1.626 1.633,1.626 H -1.633 C -0.732,1.626 0,0.895 0,0" style="fill:#4d4d4d;fill-opacity:1;fill-rule:nonzero;stroke:none" id="path3861"/></g><g id="g3863" transform="translate(181.3373,74.2989)" style="fill:#4d4d4d;fill-opacity:1"><path d="m 0,0 c 0,-6.871 -6.724,-7.898 -10.73,-7.898 h -10.56 c -0.908,0 -1.647,0.739 -1.647,1.646 0,0.916 0.739,1.655 1.647,1.655 h 10.56 c 4.661,0 7.034,1.542 7.034,4.597 0,3.753 -4.084,4.154 -5.837,4.154 H -21.29 c -0.908,0 -1.647,0.746 -1.647,1.655 0,0.908 0.739,1.647 1.647,1.647 h 9.758 c 2.774,0 6.076,0.606 6.076,3.478 0,3.851 -5.562,3.963 -6.196,3.963 h -9.638 c -0.908,0 -1.647,0.74 -1.647,1.648 0,0.908 0.739,1.647 1.647,1.647 h 9.638 c 2.302,0 9.814,-0.52 9.814,-7.258 0,-2.07 -0.908,-3.739 -2.527,-4.696 C -1.542,5.083 0,2.894 0,0" style="fill:#4d4d4d;fill-opacity:1;fill-rule:nonzero;stroke:none" id="path3865"/></g><g id="g3867" transform="translate(207.7594,80.1485)" style="fill:#4d4d4d;fill-opacity:1"><path d="m 0,0 c 0,-0.894 -0.725,-1.626 -1.626,-1.626 h -16.559 c -0.894,0 -1.627,0.732 -1.627,1.626 0,0.901 0.733,1.634 1.627,1.634 H -1.626 C -0.725,1.634 0,0.901 0,0" style="fill:#4d4d4d;fill-opacity:1;fill-rule:nonzero;stroke:none" id="path3869"/></g><g id="g3871" transform="translate(187.5326,90.8653)" style="fill:#4d4d4d;fill-opacity:1"><path d="m 0,0 c 0,0.9 0.732,1.626 1.633,1.626 h 17.376 c 0.901,0 1.633,-0.726 1.633,-1.626 0,-0.901 -0.732,-1.634 -1.633,-1.634 H 1.633 C 0.732,-1.634 0,-0.901 0,0" style="fill:#4d4d4d;fill-opacity:1;fill-rule:nonzero;stroke:none" id="path3873"/></g><g id="g3875" transform="translate(160.2349,50.8174)" style="fill:#4d4d4d;fill-opacity:1"><path d="M 0,0 C -0.409,0.301 -0.745,0.676 -1.008,1.125 -1.307,1.634 -1.082,2.294 -0.533,2.51 -0.095,2.683 0.433,2.542 0.663,2.132 0.785,1.914 0.932,1.725 1.104,1.562 1.447,1.237 1.877,1.075 2.393,1.075 c 0.43,0 0.798,0.108 1.104,0.322 0.305,0.215 0.458,0.513 0.458,0.896 0,0.382 -0.146,0.695 -0.437,0.938 C 3.227,3.476 2.708,3.735 1.963,4.013 L 1.333,4.242 C 0.674,4.472 0.11,4.822 -0.358,5.295 -0.826,5.769 -1.06,6.363 -1.06,7.079 c 0,0.535 0.138,1.023 0.415,1.462 C -0.368,8.98 0.024,9.327 0.53,9.58 1.037,9.833 1.61,9.959 2.25,9.959 3.177,9.959 3.907,9.742 4.443,9.308 4.669,9.123 4.866,8.926 5.033,8.715 5.378,8.278 5.178,7.627 4.665,7.411 L 4.504,7.344 C 4.152,7.195 3.772,7.337 3.525,7.629 3.455,7.712 3.376,7.789 3.289,7.86 3.026,8.075 2.689,8.183 2.279,8.183 1.858,8.183 1.512,8.085 1.24,7.889 0.967,7.693 0.831,7.437 0.831,7.122 0.831,6.816 0.96,6.556 1.218,6.341 1.476,6.126 1.901,5.919 2.494,5.718 L 3.138,5.503 C 4.027,5.197 4.708,4.793 5.181,4.292 5.653,3.791 5.89,3.134 5.89,2.322 5.89,1.653 5.718,1.087 5.374,0.624 5.03,0.16 4.588,-0.186 4.048,-0.415 3.509,-0.645 2.952,-0.76 2.379,-0.76 1.481,-0.76 0.688,-0.506 0,0" style="fill:#4d4d4d;fill-opacity:1;fill-rule:nonzero;stroke:none" id="path3877"/></g><g id="g3879" transform="translate(181.4076,50.5743)" style="fill:#4d4d4d;fill-opacity:1"><path d="m 0,0 c -0.597,0.344 -1.06,0.841 -1.39,1.49 -0.33,0.65 -0.495,1.419 -0.495,2.308 v 5.216 c 0,0.53 0.43,0.96 0.961,0.96 v 0 c 0.53,0 0.96,-0.43 0.96,-0.96 V 3.683 C 0.036,2.976 0.215,2.405 0.573,1.971 0.932,1.535 1.44,1.318 2.099,1.318 c 0.66,0 1.168,0.217 1.526,0.653 0.359,0.434 0.538,1.005 0.538,1.712 v 5.331 c 0,0.53 0.43,0.96 0.96,0.96 0.53,0 0.96,-0.43 0.96,-0.96 V 3.798 C 6.083,2.946 5.921,2.197 5.596,1.547 5.271,0.897 4.808,0.392 4.206,0.028 3.604,-0.334 2.902,-0.517 2.099,-0.517 1.297,-0.517 0.597,-0.345 0,0" style="fill:#4d4d4d;fill-opacity:1;fill-rule:nonzero;stroke:none" id="path3881"/></g><g id="g3883" transform="translate(202.8795,60.5479)" style="fill:#4d4d4d;fill-opacity:1"><path d="m 0,0 v 0 c 0.613,0 1.163,-0.38 1.379,-0.953 l 2.363,-6.255 h 0.114 l 2.363,6.255 C 6.436,-0.38 6.985,0 7.598,0 h 0.015 c 0.814,0 1.474,-0.66 1.474,-1.475 v -7.833 c 0,-0.526 -0.427,-0.953 -0.953,-0.953 H 8.12 c -0.527,0 -0.953,0.427 -0.953,0.953 v 4.106 l 0.114,1.706 H 7.167 L 4.794,-9.65 C 4.652,-10.018 4.299,-10.261 3.905,-10.261 H 3.707 c -0.394,0 -0.747,0.242 -0.889,0.609 L 0.432,-3.496 H 0.317 l 0.115,-1.706 v -4.106 c 0,-0.526 -0.427,-0.953 -0.953,-0.953 -0.527,0 -0.953,0.427 -0.953,0.953 v 7.833 C -1.474,-0.66 -0.814,0 0,0" style="fill:#4d4d4d;fill-opacity:1;fill-rule:nonzero;stroke:none" id="path3885"/></g><g id="g3887" transform="translate(227.5272,60.5479)" style="fill:#4d4d4d;fill-opacity:1"><path d="m 0,0 v 0 c 0.613,0 1.163,-0.38 1.379,-0.953 l 2.363,-6.255 h 0.114 l 2.363,6.255 C 6.436,-0.38 6.985,0 7.598,0 h 0.015 c 0.814,0 1.474,-0.66 1.474,-1.475 v -7.833 c 0,-0.526 -0.427,-0.953 -0.953,-0.953 H 8.12 c -0.526,0 -0.953,0.427 -0.953,0.953 v 4.106 l 0.114,1.706 H 7.167 L 4.794,-9.65 C 4.652,-10.018 4.299,-10.261 3.905,-10.261 H 3.707 c -0.394,0 -0.747,0.242 -0.889,0.609 L 0.432,-3.496 H 0.317 l 0.115,-1.706 v -4.106 c 0,-0.526 -0.427,-0.953 -0.953,-0.953 -0.527,0 -0.953,0.427 -0.953,0.953 v 7.833 C -1.474,-0.66 -0.814,0 0,0" style="fill:#4d4d4d;fill-opacity:1;fill-rule:nonzero;stroke:none" id="path3889"/></g><g id="g3891" transform="translate(251.6681,60.5479)" style="fill:#4d4d4d;fill-opacity:1"><path d="m 0,0 v 0 c 0.534,0 0.967,-0.433 0.967,-0.967 v -8.326 c 0,-0.534 -0.433,-0.968 -0.967,-0.968 -0.534,0 -0.968,0.434 -0.968,0.968 v 8.326 C -0.968,-0.433 -0.534,0 0,0" style="fill:#4d4d4d;fill-opacity:1;fill-rule:nonzero;stroke:none" id="path3893"/></g><g id="g3895" transform="translate(268.7994,58.713)" style="fill:#4d4d4d;fill-opacity:1"><path d="m 0,0 h -1.949 c -0.506,0 -0.917,0.411 -0.917,0.918 0,0.507 0.411,0.917 0.917,0.917 H 3.883 C 4.39,1.835 4.801,1.425 4.801,0.918 4.801,0.411 4.39,0 3.883,0 H 1.935 v -7.508 c 0,-0.507 -0.411,-0.918 -0.918,-0.918 h -0.1 C 0.411,-8.426 0,-8.015 0,-7.508 Z" style="fill:#4d4d4d;fill-opacity:1;fill-rule:nonzero;stroke:none" id="path3897"/></g></g></g></g></svg>